PathFileType	4	(X/Y/Z)	C:/Users/opensim2020/Desktop/walking_exp_matlab/subject02_walking13_straight_04.trc																																																																																																																									
DataRate	CameraRate	NumFrames	NumMarkers	Units	OrigDataRate	OrigDataStartFrame	OrigNumFrames																																																																																																																					
100	100	5	41	mm	100	1750	118																																																																																																																					
Frame#	Time	LFHD			RFHD			LBHD			RBHD			C7			T10			CLAV			STRN			RBAK			LSHO			LUPA			LELB			LFRM			LWRA			LWRB			LFIN			RSHO			RUPA			RELB			RFRM			RWRA			RWRB			RFIN			LASI			RASI			LPSI			RPSI			LTHI			LKNE			LTIB			LANK			LHEE			LTOE			RTHI			RKNE			RTIB			RANK			RHEE			RTOE			*39			*40		
		X1	Y1	Z1	X2	Y2	Z2	X3	Y3	Z3	X4	Y4	Z4	X5	Y5	Z5	X6	Y6	Z6	X7	Y7	Z7	X8	Y8	Z8	X9	Y9	Z9	X10	Y10	Z10	X11	Y11	Z11	X12	Y12	Z12	X13	Y13	Z13	X14	Y14	Z14	X15	Y15	Z15	X16	Y16	Z16	X17	Y17	Z17	X18	Y18	Z18	X19	Y19	Z19	X20	Y20	Z20	X21	Y21	Z21	X22	Y22	Z22	X23	Y23	Z23	X24	Y24	Z24	X25	Y25	Z25	X26	Y26	Z26	X27	Y27	Z27	X28	Y28	Z28	X29	Y29	Z29	X30	Y30	Z30	X31	Y31	Z31	X32	Y32	Z32	X33	Y33	Z33	X34	Y34	Z34	X35	Y35	Z35	X36	Y36	Z36	X37	Y37	Z37	X38	Y38	Z38	X39	Y39	Z39	X40	Y40	Z40	X41	Y41	Z41
																																																																																																																												
15	0.14	-645.14966	1710.13281	-1422.80896	-662.6402	1681.14343	-1282.4668	-779.48315	1647.1842	-1450.3064	-808.73724	1618.49438	-1312.51526	-850.29114	1494.70154	-1376.55432	-885.82361	1214.64636	-1363.33911	-706.77588	1433.61609	-1401.63123	-644.97845	1267.10596	-1394.72253	-893.4212	1314.82886	-1305.75964	-801.08801	1465.87708	-1560.81372	-870.99103	1271.56665	-1623.74609	-913.69373	1139.30786	-1612.37488	-962.09406	1018.75433	-1619.45923	-982.07129	883.09424	-1571.78503	-1009.2652	902.91382	-1617.94373	-1047.21594	844.87463	-1595.76587	-761.53546	1469.1394	-1198.10559	-764.7193	1280.04285	-1107.49915	-716.87677	1140.33081	-1076.77759	-621.92828	1062.15234	-1078.97742	-509.43723	1002.75226	-1117.08447	-537.53052	963.37061	-1087.96716	-467.63895	951.55829	-1087.9502	-648.74365	973.73499	-1519.5343	-649.2959	930.96045	-1272.71179	-861.33295	1013.37726	-1430.36499	-859.16217	999.11401	-1312.59033	-638.36487	681.06195	-1591.51575	-602.07507	484.94379	-1563.79541	-633.76294	294.75275	-1582.73657	-624.43835	73.78682	-1558.38831	-661.3493	44.95698	-1508.49719	-468.04037	35.06827	-1568.76843	-793.76782	632.33978	-1200.15369	-841.28912	435.62003	-1218.9209	-1001.02936	339.16318	-1211.51672	-1151.93323	221.96965	-1240.33813	-1207.63989	226.03735	-1297.26733	-1133.45129	57.42193	-1258.65503	-750.87952	1777.27295	-1338.18701	-2845.89648	1034.40552	3357.49072
16	0.15	-632.2428	1712.2627	-1426.23242	-649.89691	1684.03223	-1286.19238	-766.53351	1649.05493	-1453.67212	-795.85284	1620.8927	-1315.81177	-837.34778	1496.58911	-1379.81494	-872.91809	1216.92065	-1366.83411	-693.52008	1435.80701	-1404.41187	-631.9895	1269.13696	-1397.08801	-880.66394	1317.47693	-1308.95215	-787.10742	1468.11719	-1564.04822	-853.53302	1272.7594	-1628.75659	-894.92853	1140.17749	-1618.94348	-941.70081	1019.47656	-1628.00684	-960.1228	882.61853	-1580.74915	-986.69635	902.55334	-1627.20764	-1024.05432	843.71808	-1606.40271	-748.70215	1471.22424	-1201.01245	-753.18536	1281.79492	-1111.11816	-707.5296	1141.2572	-1082.10742	-614.49988	1060.88379	-1083.09619	-503.0791	999.24384	-1120.10925	-532.52954	960.34155	-1091.65125	-462.87689	947.35443	-1090.37927	-635.59943	976.82916	-1522.90161	-636.07166	932.50909	-1277.49915	-848.25818	1014.51111	-1433.52612	-846.34113	1000.70551	-1315.85815	-625.93628	682.31879	-1593.33142	-597.28479	483.92801	-1566.03101	-633.51556	294.03506	-1581.32898	-624.66675	73.54102	-1558.33154	-661.4762	44.92588	-1508.48022	-468.07166	34.99101	-1568.71265	-771.80011	630.1308	-1204.17249	-813.8429	433.76105	-1221.85132	-974.5285	340.88046	-1214.03699	-1128.72559	229.73828	-1245.29504	-1182.99402	235.96719	-1303.93335	-1116.81445	64.70536	-1257.95239	-738.2771	1779.62842	-1342.18591	-2845.84082	1034.32971	3357.40918
17	0.16	-619.52472	1714.74316	-1429.84949	-637.09979	1686.96118	-1289.55261	-753.64215	1651.23889	-1457.05139	-782.90771	1623.50745	-1318.96814	-824.26172	1499.17102	-1383.14795	-860.02081	1219.29456	-1370.05298	-680.46558	1438.31873	-1406.86865	-619.11639	1271.32715	-1399.13013	-867.83545	1320.29346	-1311.45898	-773.18964	1470.79529	-1567.27295	-835.7771	1274.20569	-1633.33362	-875.61993	1141.30432	-1625.49646	-919.81268	1019.55426	-1635.35352	-936.68018	882.48486	-1590.10388	-963.11316	902.42664	-1636.64307	-999.18842	842.39746	-1617.50061	-736.44489	1473.73096	-1204.11182	-741.73688	1283.68237	-1115.20337	-698.64948	1142.62219	-1086.68628	-607.56268	1059.72107	-1087.01831	-497.12393	995.36926	-1123.13098	-528.18481	956.97119	-1094.96057	-458.70322	942.52594	-1092.52637	-623.15308	980.11743	-1526.2583	-623.57318	934.57086	-1281.56274	-835.67407	1016.17065	-1436.83716	-834.21393	1002.92847	-1319.47681	-614.69153	684.20782	-1595.23743	-594.33801	483.13818	-1568.4209	-634.38336	293.88318	-1580.3114	-624.7691	73.48311	-1558.21118	-661.5376	45.09106	-1508.68542	-468.37149	35.11947	-1568.94788	-749.64398	629.26147	-1208.24304	-786.00616	432.73907	-1224.99487	-947.26337	342.8916	-1217.33472	-1104.55627	237.09358	-1251.22949	-1158.11865	242.97995	-1312.46716	-1096.62988	72.59206	-1256.30554	-725.53259	1782.23096	-1345.89429	-2845.82544	1034.26978	3357.38306
18	0.17	-606.64233	1717.06531	-1433.12915	-624.02734	1689.99646	-1292.5603	-740.45892	1653.34595	-1459.73474	-769.89459	1626.35168	-1321.88379	-811.08801	1502.1405	-1386.4021	-847.45581	1222.11304	-1373.36023	-667.43298	1441.03638	-1409.09155	-606.36597	1273.74023	-1400.96118	-855.8233	1323.66528	-1314.38672	-758.94586	1473.59937	-1569.91797	-818.06299	1276.37292	-1638.32166	-855.98486	1142.78613	-1632.20215	-897.9444	1020.46887	-1643.75	-912.14246	882.58441	-1599.66553	-938.60474	902.49188	-1646.19238	-972.80273	841.26971	-1629.2113	-724.34009	1476.3894	-1206.75549	-731.28223	1285.89575	-1118.3999	-689.61871	1144.15369	-1091.54443	-600.55341	1058.76392	-1091.13989	-491.77463	991.34796	-1126.06812	-524.284	953.72815	-1098.21387	-455.26358	937.46216	-1095.02124	-610.84277	983.00043	-1528.89575	-611.75916	936.83368	-1284.302	-823.45471	1018.57202	-1440.29846	-822.70526	1005.7403	-1323.33545	-605.01575	685.80103	-1597.11438	-591.81354	483.21262	-1570.4021	-635.26648	294.26007	-1580.32239	-625.02502	73.52512	-1558.18542	-661.68555	45.01421	-1508.6543	-468.61447	35.24407	-1569.0564	-728.57056	629.94885	-1211.20044	-758.34534	433.12552	-1228.36487	-919.34296	345.31024	-1222.2384	-1079.5603	243.87709	-1258.11401	-1132.45044	247.80203	-1321.24854	-1072.01819	80.51305	-1254.55591	-712.62775	1784.98535	-1349.51575	-2845.34766	1034.203	3360.37939
19	0.18	-593.58813	1719.6178	-1436.15393	-611.12732	1693.2771	-1295.6593	-727.48456	1655.84509	-1462.69128	-756.86194	1629.34729	-1324.59021	-797.94812	1505.22058	-1389.45886	-835.06183	1225.21436	-1376.61658	-654.48346	1443.89746	-1411.0813	-593.5155	1276.21228	-1402.40833	-843.61993	1327.01685	-1317.12488	-744.7132	1476.82593	-1572.78284	-799.94995	1278.63635	-1642.80969	-835.9071	1144.51794	-1638.86035	-875.57312	1021.73035	-1652.28931	-886.63898	882.90607	-1609.32764	-913.20233	902.90894	-1655.75122	-944.71643	839.99738	-1640.80042	-712.55725	1479.15784	-1209.32788	-720.31726	1288.27124	-1121.52332	-680.57825	1145.77209	-1096.27783	-594.46643	1057.69812	-1095.14612	-486.84607	987.16229	-1128.95459	-520.79767	950.70447	-1101.33716	-452.43597	932.1499	-1097.87549	-598.66785	985.52515	-1531.17078	-599.68744	940.14709	-1286.22253	-811.39075	1021.56592	-1443.84973	-811.68048	1008.93597	-1327.42212	-597.06073	686.75439	-1598.91797	-589.08917	483.98322	-1572.21716	-635.3703	295.18542	-1581.28601	-625.43475	73.75407	-1558.41577	-661.8526	44.74132	-1508.42798	-468.77322	35.20691	-1569.13318	-707.48303	631.56256	-1214.52161	-730.59778	434.7851	-1231.97363	-892.00653	348.56818	-1227.57849	-1053.42798	249.81281	-1265.36377	-1106.00476	251.14218	-1329.43689	-1044.44556	86.91743	-1253.67139	-699.69843	1787.86621	-1353.03381	-2845.27612	1034.17041	3360.32886
